<mxfile host="app.diagrams.net" modified="2020-10-23T09:44:10.848Z" agent="5.0 (Windows NT 6.1; WOW64) AppleWebKit/537.36 (KHTML, like Gecko) Chrome/86.0.4240.75 Safari/537.36" etag="EUMeRuw48AFpgC8TeW0a" version="13.8.1" type="github">
  <diagram name="Page-1" id="c4acf3e9-155e-7222-9cf6-157b1a14988f">
    <mxGraphModel dx="1102" dy="592" grid="1" gridSize="10" guides="1" tooltips="1" connect="1" arrows="1" fold="1" page="1" pageScale="1" pageWidth="850" pageHeight="1100" background="#ffffff" math="0" shadow="0">
      <root>
        <mxCell id="0" />
        <mxCell id="1" parent="0" />
        <mxCell id="BU-p0SBEV7-orNtA-VR0-21" value="卡管理系统" style="shape=cube;whiteSpace=wrap;html=1;boundedLbl=1;backgroundOutline=1;darkOpacity=0.05;darkOpacity2=0.1;labelBackgroundColor=none;" vertex="1" parent="1">
          <mxGeometry x="200" y="320" width="120" height="80" as="geometry" />
        </mxCell>
        <mxCell id="BU-p0SBEV7-orNtA-VR0-22" value="交易系统&lt;br&gt;" style="shape=cube;whiteSpace=wrap;html=1;boundedLbl=1;backgroundOutline=1;darkOpacity=0.05;darkOpacity2=0.1;labelBackgroundColor=none;" vertex="1" parent="1">
          <mxGeometry x="360" y="150" width="120" height="80" as="geometry" />
        </mxCell>
        <mxCell id="BU-p0SBEV7-orNtA-VR0-23" value="统计系统" style="shape=cube;whiteSpace=wrap;html=1;boundedLbl=1;backgroundOutline=1;darkOpacity=0.05;darkOpacity2=0.1;labelBackgroundColor=none;" vertex="1" parent="1">
          <mxGeometry x="520" y="320" width="120" height="80" as="geometry" />
        </mxCell>
        <mxCell id="BU-p0SBEV7-orNtA-VR0-26" value="" style="endArrow=none;html=1;fontColor=#000000;" edge="1" parent="1">
          <mxGeometry width="50" height="50" relative="1" as="geometry">
            <mxPoint x="320" y="357" as="sourcePoint" />
            <mxPoint x="520" y="357" as="targetPoint" />
          </mxGeometry>
        </mxCell>
        <mxCell id="BU-p0SBEV7-orNtA-VR0-27" value="" style="endArrow=none;html=1;fontColor=#000000;" edge="1" parent="1">
          <mxGeometry width="50" height="50" relative="1" as="geometry">
            <mxPoint x="259" y="320" as="sourcePoint" />
            <mxPoint x="370" y="190" as="targetPoint" />
          </mxGeometry>
        </mxCell>
        <mxCell id="BU-p0SBEV7-orNtA-VR0-28" value="" style="endArrow=none;html=1;fontColor=#000000;entryX=0;entryY=0;entryDx=50;entryDy=0;entryPerimeter=0;exitX=0;exitY=0;exitDx=120;exitDy=50;exitPerimeter=0;" edge="1" parent="1" source="BU-p0SBEV7-orNtA-VR0-22" target="BU-p0SBEV7-orNtA-VR0-23">
          <mxGeometry width="50" height="50" relative="1" as="geometry">
            <mxPoint x="480" y="200" as="sourcePoint" />
            <mxPoint x="530" y="150" as="targetPoint" />
          </mxGeometry>
        </mxCell>
      </root>
    </mxGraphModel>
  </diagram>
</mxfile>
